<mxfile host="65bd71144e">
    <diagram id="O8iVTtbMJixq3Q2n7KBX" name="Page-1">
        <mxGraphModel dx="1127" dy="755" grid="1" gridSize="10" guides="1" tooltips="1" connect="1" arrows="1" fold="1" page="1" pageScale="1" pageWidth="850" pageHeight="1100" math="0" shadow="0">
            <root>
                <mxCell id="0"/>
                <mxCell id="1" parent="0"/>
                <mxCell id="35" value="" style="rounded=0;whiteSpace=wrap;html=1;strokeWidth=0;" parent="1" vertex="1">
                    <mxGeometry x="10" y="110" width="760" height="430" as="geometry"/>
                </mxCell>
                <mxCell id="16" value="Main App Flow" style="rounded=0;whiteSpace=wrap;html=1;labelBackgroundColor=none;align=center;dashed=1;verticalAlign=bottom;fontSize=15;" parent="1" vertex="1">
                    <mxGeometry x="40" y="276" width="700" height="234" as="geometry"/>
                </mxCell>
                <mxCell id="5" value="HTTP Call" style="edgeStyle=orthogonalEdgeStyle;rounded=0;orthogonalLoop=1;jettySize=auto;html=1;" parent="1" source="3" target="4" edge="1">
                    <mxGeometry relative="1" as="geometry"/>
                </mxCell>
                <mxCell id="3" value="Customer Message" style="shape=note;whiteSpace=wrap;html=1;backgroundOutline=1;darkOpacity=0.05;align=center;" parent="1" vertex="1">
                    <mxGeometry x="200" y="300" width="80" height="120" as="geometry"/>
                </mxCell>
                <mxCell id="8" style="edgeStyle=orthogonalEdgeStyle;rounded=0;orthogonalLoop=1;jettySize=auto;html=1;entryX=-0.015;entryY=0.5;entryDx=0;entryDy=0;entryPerimeter=0;" parent="1" source="4" target="6" edge="1">
                    <mxGeometry relative="1" as="geometry"/>
                </mxCell>
                <mxCell id="9" value="HTTP Call" style="edgeLabel;html=1;align=center;verticalAlign=middle;resizable=0;points=[];" parent="8" vertex="1" connectable="0">
                    <mxGeometry x="-0.1899" y="1" relative="1" as="geometry">
                        <mxPoint as="offset"/>
                    </mxGeometry>
                </mxCell>
                <mxCell id="30" value="" style="edgeStyle=orthogonalEdgeStyle;orthogonalLoop=1;jettySize=auto;html=1;rounded=0;" parent="1" source="4" target="11" edge="1">
                    <mxGeometry relative="1" as="geometry"/>
                </mxCell>
                <mxCell id="36" value="Get API Key for Cognitive Services" style="edgeLabel;html=1;align=center;verticalAlign=middle;resizable=0;points=[];" vertex="1" connectable="0" parent="30">
                    <mxGeometry x="0.2143" y="1" relative="1" as="geometry">
                        <mxPoint as="offset"/>
                    </mxGeometry>
                </mxCell>
                <mxCell id="4" value="&lt;b&gt;Azure Functions&lt;/b&gt;" style="aspect=fixed;html=1;points=[];align=center;image;fontSize=12;image=img/lib/azure2/compute/Function_Apps.svg;" parent="1" vertex="1">
                    <mxGeometry x="400" y="330" width="68" height="60" as="geometry"/>
                </mxCell>
                <mxCell id="6" value="&lt;b&gt;Azure Cognitive Services&lt;br&gt;&lt;/b&gt;Text Analytics - Sentiment" style="aspect=fixed;html=1;points=[];align=center;image;fontSize=12;image=img/lib/azure2/ai_machine_learning/Cognitive_Services.svg;" parent="1" vertex="1">
                    <mxGeometry x="590" y="336" width="68" height="48" as="geometry"/>
                </mxCell>
                <mxCell id="11" value="&lt;b&gt;Key Vault&lt;/b&gt;" style="aspect=fixed;html=1;points=[];align=center;image;fontSize=12;image=img/lib/azure2/security/Key_Vaults.svg;horizontal=0;labelPosition=right;verticalLabelPosition=middle;verticalAlign=top;" parent="1" vertex="1">
                    <mxGeometry x="400" y="150" width="68" height="68" as="geometry"/>
                </mxCell>
                <mxCell id="23" value="" style="endArrow=classic;html=1;entryX=1;entryY=1;entryDx=0;entryDy=0;entryPerimeter=0;curved=1;dashed=1;dashPattern=1 1;fontColor=#009900;strokeColor=#009900;" parent="1" target="26" edge="1">
                    <mxGeometry width="50" height="50" relative="1" as="geometry">
                        <mxPoint x="626" y="382" as="sourcePoint"/>
                        <mxPoint x="630" y="420" as="targetPoint"/>
                        <Array as="points">
                            <mxPoint x="580" y="490"/>
                            <mxPoint x="440" y="390"/>
                            <mxPoint x="350" y="470"/>
                            <mxPoint x="220" y="450"/>
                        </Array>
                    </mxGeometry>
                </mxCell>
                <mxCell id="24" value="Returns analyzed sentiment result to function" style="edgeLabel;html=1;align=center;verticalAlign=middle;resizable=0;points=[];fontColor=#009900;" parent="23" vertex="1" connectable="0">
                    <mxGeometry x="-0.2921" y="-2" relative="1" as="geometry">
                        <mxPoint x="132" y="40" as="offset"/>
                    </mxGeometry>
                </mxCell>
                <mxCell id="25" value="Formats analyzed result as HTML" style="edgeLabel;html=1;align=center;verticalAlign=middle;resizable=0;points=[];fontColor=#009900;" parent="23" vertex="1" connectable="0">
                    <mxGeometry x="0.1565" y="13" relative="1" as="geometry">
                        <mxPoint x="58" y="-29" as="offset"/>
                    </mxGeometry>
                </mxCell>
                <mxCell id="28" value="Returns formatted response to caller" style="edgeLabel;html=1;align=center;verticalAlign=middle;resizable=0;points=[];fontColor=#009900;" parent="23" vertex="1" connectable="0">
                    <mxGeometry x="0.549" y="-3" relative="1" as="geometry">
                        <mxPoint x="-84" y="8" as="offset"/>
                    </mxGeometry>
                </mxCell>
                <mxCell id="27" value="" style="edgeStyle=orthogonalEdgeStyle;orthogonalLoop=1;jettySize=auto;html=1;rounded=0;" parent="1" source="26" target="3" edge="1">
                    <mxGeometry relative="1" as="geometry"/>
                </mxCell>
                <mxCell id="26" value="" style="verticalLabelPosition=bottom;html=1;verticalAlign=top;align=center;strokeColor=none;fillColor=#00BEF2;shape=mxgraph.azure.user;dashed=1;labelBackgroundColor=#ffffff;" parent="1" vertex="1">
                    <mxGeometry x="80" y="335" width="47.5" height="50" as="geometry"/>
                </mxCell>
            </root>
        </mxGraphModel>
    </diagram>
</mxfile>